<svg width="340" 
    xmlns="http://www.w3.org/2000/svg"
height="71.21235260309606" viewBox="0 0 374.74226411496346 78.48905366893332" class="css-1j8o68f"><defs id="SvgjsDefs1163"></defs><g id="SvgjsG1164" featurekey="nRdZyp-0" transform="matrix(1.0483658924525596,0,0,1.0483658924525596,-8.675237358121338,-13.979962215245745)" fill="#ffe98a"><path xmlns="http://www.w3.org/2000/svg" d="M77.486,39.803c0.586-3.135,0.311-8.523-4.847-12.286c-1.596-1.163-4.16-2.285-7.121-2.285  c-2.379,0-5.013,0.724-7.606,2.733c-4.115-8.135-10.738-10.63-16.497-10.63c-3.967,0-7.523,1.184-9.57,2.522  c-4.81,3.145-10.341,9.182-8.238,19.855c-6.496,1.791-11.332,7.622-11.332,14.674c0,7.479,5.407,13.68,12.523,14.942V48.914h25.457  l-1.023,0c-0.35-2.309-0.896-4.41-1.738-6.427c-0.137,0.029-0.279,0.046-0.425,0.046c-1.119,0-2.025-0.906-2.025-2.024  c0-0.589,0.255-1.114,0.656-1.484c-0.762-1.219-1.666-2.433-2.732-3.67c-0.485,0.321-1.064,0.51-1.689,0.51  c-1.695,0-3.068-1.374-3.068-3.068c0-1.694,1.374-3.068,3.068-3.068c1.694,0,3.068,1.374,3.068,3.068c0,0.707-0.249,1.35-0.65,1.868  c1.136,1.311,2.095,2.594,2.899,3.881c0.152-0.037,0.309-0.061,0.472-0.061c1.118,0,2.025,0.907,2.025,2.025  c0,0.604-0.271,1.141-0.69,1.512c0.911,2.161,1.491,4.409,1.852,6.894h25.742v20.406c7.085-1.286,12.463-7.474,12.463-14.933  C88.461,47.463,84.235,41.912,77.486,39.803z"></path><path xmlns="http://www.w3.org/2000/svg" d="M81.69,37.171c-0.056-3.597-1.221-8.893-6.693-12.885c-2.663-1.941-6.117-3.054-9.479-3.054  c-2.132,0-4.232,0.442-6.223,1.297c-5.647-7.905-13.419-9.194-17.88-9.194c-4.324,0-8.72,1.187-11.759,3.174  c-7.431,4.858-11.06,12.086-10.434,20.596c-6.586,3.187-10.947,9.872-10.947,17.281c0,9.675,7.203,17.678,16.523,18.982v-2.021  c-8.214-1.288-14.523-8.393-14.523-16.962c0-7.099,4.477-13.458,11.084-16.033c-1.077-8.364,2.216-15.479,9.391-20.17  c2.105-1.377,6.012-2.848,10.665-2.848c4.299,0,11.982,1.323,17.185,9.765c2.169-1.241,4.488-1.869,6.918-1.868  c4.186,0,7.198,1.867,8.3,2.669c5.483,4,6.038,9.495,5.843,12.558c6.705,2.723,10.8,8.692,10.8,15.927  c0,8.548-6.279,15.639-14.463,16.953v2.021c9.291-1.331,16.463-9.32,16.463-18.974C92.461,46.771,88.409,40.416,81.69,37.171z"></path><path xmlns="http://www.w3.org/2000/svg" d="M86.242,85.336c0-0.046-0.036-0.083-0.083-0.083H79.12c0.003-0.003,0.003-0.006,0.003-0.01H56.295  c-0.093,0.47-0.509,0.823-1.002,0.823h-9.848c-0.496,0-0.909-0.354-1.002-0.823h-22.83c0,0.004,0.001,0.007,0.003,0.01h-7.04  c-0.044,0-0.083,0.037-0.083,0.083v1.025c0,0.046,0.018,0.089,0.048,0.118l0,0c0,0,0.815,1.724,3.297,1.724h65.057  c2.479,0,3.296-1.724,3.296-1.724l0,0c0.03-0.029,0.05-0.072,0.05-0.118V85.336L86.242,85.336z"></path><path xmlns="http://www.w3.org/2000/svg" d="M77.434,45.545H49.583c0.279,1.082,0.503,2.197,0.673,3.369h25.727v31.667v0.291H24.799v-0.291V48.914h25.457l-1.023,0  c-0.178-1.171-0.407-2.288-0.698-3.368H23.305c-1.051,0-1.915,0.863-1.915,1.915v36.385h57.955V47.459  C79.345,46.406,78.481,45.545,77.434,45.545z"></path><path xmlns="http://www.w3.org/2000/svg" d="M49.946,64.29h0.846c0-6.279-0.012-11.16-0.626-15.376h-0.866C49.936,53.113,49.946,57.987,49.946,64.29z"></path><circle xmlns="http://www.w3.org/2000/svg" cx="50.369" cy="64.29" r="3.069"></circle><circle xmlns="http://www.w3.org/2000/svg" cx="50.262" cy="54.449" r="2.025"></circle></g><g id="SvgjsG1165" featurekey="Q4qmbg-0" transform="matrix(4.4109991778433155,0,0,4.4109991778433155,108.50078092273296,-17.172271372057875)" fill="#ffffff"><path d="M7.5 10.26 l-0.4 2.22 c-0.74 -0.32 -0.88 -0.26 -1.22 -0.26 c-1.2 0 -1.9 0.64 -1.9 2.22 l0 5.56 l-2.96 0 l0 -9.88 l2.96 0 l0 0.88 c0.38 -0.68 1.42 -1.02 2.08 -1.02 c0.62 0 0.98 0.02 1.44 0.28 z M17.727708333333332 15.08 l0 0.66 l-7.04 0 c0 1.16 1.18 1.98 2.16 1.98 c0.96 0 1.84 -0.38 2.3 -1.22 l1.98 1.82 c-0.8 1.08 -2.02 1.84 -4.28 1.84 c-3.24 0 -5.22 -2.16 -5.22 -5.08 s1.92 -5.1 5.04 -5.1 s5.06 2.14 5.06 5.1 z M10.747708333333332 13.86 l3.88 0 c-0.16 -0.94 -0.84 -1.44 -1.96 -1.44 c-1.08 0 -1.74 0.58 -1.92 1.44 z M28.095416666666665 14.36 l0 5.64 l-2.96 0 l0 -5.64 c0 -1.5 -0.4 -2.16 -1.56 -2.16 c-1.2 0 -1.9 0.66 -1.9 2.16 l0 5.64 l-2.96 0 l0 -9.88 l2.96 0 l0 0.94 c0.76 -0.74 1.8 -1.08 2.66 -1.08 c2.78 0 3.76 1.34 3.76 4.38 z M31.903124999999996 13.04 l-2.2 -1.26 c1.1 -1.24 2.58 -1.82 4.12 -1.82 c2.96 0 4.16 1.62 4.16 3.14 l0 6.9 l-2.96 0 l0 -0.7 c-0.46 0.48 -1.28 0.84 -2.2 0.84 c-2.7 0 -3.74 -1.2 -3.74 -3.04 c0 -2.08 1.68 -3.48 4.4 -3.48 l1.54 0 c0 -0.74 -0.56 -1.22 -1.4 -1.22 c-0.86 0 -1.28 0.16 -1.72 0.64 z M35.023125 16.740000000000002 l0 -0.88 l-1.74 0 c-0.78 0 -1.36 0.54 -1.24 1.3 c0.08 0.54 0.56 0.76 1.24 0.76 c1.3 0 1.74 -0.74 1.74 -1.18 z M39.73083333333333 15.76 l0 -5.64 l2.96 0 l0 5.64 c0 1.52 0.42 2.16 1.56 2.16 c1.2 0 1.9 -0.64 1.9 -2.16 l0 -5.64 l2.96 0 l0 9.88 l-2.96 0 l0 -0.9 c-0.56 0.7 -1.78 1.06 -2.64 1.06 c-2.78 0 -3.78 -1.32 -3.78 -4.4 z M50.31854166666666 15.08 c0 -2.92 1.92 -5.1 4.82 -5.1 c0.64 0 1.9 0.34 2.24 0.82 l0 -5.32 l2.98 0 l0 14.52 l-2.98 0 l0 -0.66 c-0.36 0.46 -1.38 0.82 -2.04 0.82 c-2.9 0 -5.02 -2.16 -5.02 -5.08 z M53.298541666666665 15.08 c0 1.56 1 2.84 2.24 2.84 c1.36 0 2.24 -1.52 2.24 -2.84 s-0.86 -2.86 -2.24 -2.86 c-1.24 0 -2.24 1.28 -2.24 2.86 z"></path></g></svg>