<svg id="visual" viewBox="0 0 900 600" width="900" height="600" xmlns="http://www.w3.org/2000/svg" xmlns:xlink="http://www.w3.org/1999/xlink" version="1.1"><path d="M0 419L9.3 403.3C18.7 387.7 37.3 356.3 56.2 356.5C75 356.7 94 388.3 112.8 402C131.7 415.7 150.3 411.3 169 416.2C187.7 421 206.3 435 225 417.5C243.7 400 262.3 351 281.2 336.7C300 322.3 319 342.7 337.8 363C356.7 383.3 375.3 403.7 394 423C412.7 442.3 431.3 460.7 450 445C468.7 429.3 487.3 379.7 506.2 375.8C525 372 544 414 562.8 423.7C581.7 433.3 600.3 410.7 619 401C637.7 391.3 656.3 394.7 675 393.2C693.7 391.7 712.3 385.3 731.2 386.7C750 388 769 397 787.8 407.7C806.7 418.3 825.3 430.7 844 418.2C862.7 405.7 881.3 368.3 890.7 349.7L900 331L900 601L890.7 601C881.3 601 862.7 601 844 601C825.3 601 806.7 601 787.8 601C769 601 750 601 731.2 601C712.3 601 693.7 601 675 601C656.3 601 637.7 601 619 601C600.3 601 581.7 601 562.8 601C544 601 525 601 506.2 601C487.3 601 468.7 601 450 601C431.3 601 412.7 601 394 601C375.3 601 356.7 601 337.8 601C319 601 300 601 281.2 601C262.3 601 243.7 601 225 601C206.3 601 187.7 601 169 601C150.3 601 131.7 601 112.8 601C94 601 75 601 56.2 601C37.3 601 18.7 601 9.3 601L0 601Z" fill="#fdba74"></path><path d="M0 418L9.3 431.5C18.7 445 37.3 472 56.2 477.5C75 483 94 467 112.8 458.5C131.7 450 150.3 449 169 439.7C187.7 430.3 206.3 412.7 225 404.7C243.7 396.7 262.3 398.3 281.2 391.3C300 384.3 319 368.7 337.8 360C356.7 351.3 375.3 349.7 394 360.2C412.7 370.7 431.3 393.3 450 406.3C468.7 419.3 487.3 422.7 506.2 426C525 429.3 544 432.7 562.8 434.5C581.7 436.3 600.3 436.7 619 417.7C637.7 398.7 656.3 360.3 675 344C693.7 327.7 712.3 333.3 731.2 362C750 390.7 769 442.3 787.8 437.8C806.7 433.3 825.3 372.7 844 354.5C862.7 336.3 881.3 360.7 890.7 372.8L900 385L900 601L890.7 601C881.3 601 862.7 601 844 601C825.3 601 806.7 601 787.8 601C769 601 750 601 731.2 601C712.3 601 693.7 601 675 601C656.3 601 637.7 601 619 601C600.3 601 581.7 601 562.8 601C544 601 525 601 506.2 601C487.3 601 468.7 601 450 601C431.3 601 412.7 601 394 601C375.3 601 356.7 601 337.8 601C319 601 300 601 281.2 601C262.3 601 243.7 601 225 601C206.3 601 187.7 601 169 601C150.3 601 131.7 601 112.8 601C94 601 75 601 56.2 601C37.3 601 18.7 601 9.3 601L0 601Z" fill="#fbb169"></path><path d="M0 460L9.3 461.8C18.7 463.7 37.3 467.3 56.2 459.8C75 452.3 94 433.7 112.8 438.5C131.7 443.3 150.3 471.7 169 481.2C187.7 490.7 206.3 481.3 225 480.7C243.7 480 262.3 488 281.2 473.2C300 458.3 319 420.7 337.8 403.2C356.7 385.7 375.3 388.3 394 409.8C412.7 431.3 431.3 471.7 450 474.5C468.7 477.3 487.3 442.7 506.2 436.5C525 430.3 544 452.7 562.8 464C581.7 475.3 600.3 475.7 619 474.3C637.7 473 656.3 470 675 455.8C693.7 441.7 712.3 416.3 731.2 402.8C750 389.3 769 387.7 787.8 391.7C806.7 395.7 825.3 405.3 844 406.7C862.7 408 881.3 401 890.7 397.5L900 394L900 601L890.7 601C881.3 601 862.7 601 844 601C825.3 601 806.7 601 787.8 601C769 601 750 601 731.2 601C712.3 601 693.7 601 675 601C656.3 601 637.7 601 619 601C600.3 601 581.7 601 562.8 601C544 601 525 601 506.2 601C487.3 601 468.7 601 450 601C431.3 601 412.7 601 394 601C375.3 601 356.7 601 337.8 601C319 601 300 601 281.2 601C262.3 601 243.7 601 225 601C206.3 601 187.7 601 169 601C150.3 601 131.7 601 112.8 601C94 601 75 601 56.2 601C37.3 601 18.7 601 9.3 601L0 601Z" fill="#f9a95e"></path><path d="M0 390L9.3 408.8C18.7 427.7 37.3 465.3 56.2 475.8C75 486.3 94 469.7 112.8 469C131.7 468.3 150.3 483.7 169 477.3C187.7 471 206.3 443 225 438.7C243.7 434.3 262.3 453.7 281.2 454.2C300 454.7 319 436.3 337.8 429.7C356.7 423 375.3 428 394 435.3C412.7 442.7 431.3 452.3 450 459.7C468.7 467 487.3 472 506.2 477.3C525 482.7 544 488.3 562.8 492C581.7 495.7 600.3 497.3 619 484.2C637.7 471 656.3 443 675 426.3C693.7 409.7 712.3 404.3 731.2 412.5C750 420.7 769 442.3 787.8 462.8C806.7 483.3 825.3 502.7 844 489.2C862.7 475.7 881.3 429.3 890.7 406.2L900 383L900 601L890.7 601C881.3 601 862.7 601 844 601C825.3 601 806.7 601 787.8 601C769 601 750 601 731.2 601C712.3 601 693.7 601 675 601C656.3 601 637.7 601 619 601C600.3 601 581.7 601 562.8 601C544 601 525 601 506.2 601C487.3 601 468.7 601 450 601C431.3 601 412.7 601 394 601C375.3 601 356.7 601 337.8 601C319 601 300 601 281.2 601C262.3 601 243.7 601 225 601C206.3 601 187.7 601 169 601C150.3 601 131.7 601 112.8 601C94 601 75 601 56.2 601C37.3 601 18.7 601 9.3 601L0 601Z" fill="#f8a053"></path><path d="M0 467L9.3 466.7C18.7 466.3 37.3 465.7 56.2 472.7C75 479.7 94 494.3 112.8 505C131.7 515.7 150.3 522.3 169 524C187.7 525.7 206.3 522.3 225 516.8C243.7 511.3 262.3 503.7 281.2 484C300 464.3 319 432.7 337.8 436.8C356.7 441 375.3 481 394 490.5C412.7 500 431.3 479 450 464.8C468.7 450.7 487.3 443.3 506.2 445.8C525 448.3 544 460.7 562.8 457.2C581.7 453.7 600.3 434.3 619 436.7C637.7 439 656.3 463 675 459.2C693.7 455.3 712.3 423.7 731.2 429C750 434.3 769 476.7 787.8 485C806.7 493.3 825.3 467.7 844 450.3C862.7 433 881.3 424 890.7 419.5L900 415L900 601L890.7 601C881.3 601 862.7 601 844 601C825.3 601 806.7 601 787.8 601C769 601 750 601 731.2 601C712.3 601 693.7 601 675 601C656.3 601 637.7 601 619 601C600.3 601 581.7 601 562.8 601C544 601 525 601 506.2 601C487.3 601 468.7 601 450 601C431.3 601 412.7 601 394 601C375.3 601 356.7 601 337.8 601C319 601 300 601 281.2 601C262.3 601 243.7 601 225 601C206.3 601 187.7 601 169 601C150.3 601 131.7 601 112.8 601C94 601 75 601 56.2 601C37.3 601 18.7 601 9.3 601L0 601Z" fill="#f69648"></path><path d="M0 432L9.3 440.5C18.7 449 37.3 466 56.2 467C75 468 94 453 112.8 450.8C131.7 448.7 150.3 459.3 169 463.5C187.7 467.7 206.3 465.3 225 468.8C243.7 472.3 262.3 481.7 281.2 485.5C300 489.3 319 487.7 337.8 476.2C356.7 464.7 375.3 443.3 394 433.5C412.7 423.7 431.3 425.3 450 430.7C468.7 436 487.3 445 506.2 462C525 479 544 504 562.8 502.3C581.7 500.7 600.3 472.3 619 463.7C637.7 455 656.3 466 675 468C693.7 470 712.3 463 731.2 469.2C750 475.3 769 494.7 787.8 508.3C806.7 522 825.3 530 844 531.5C862.7 533 881.3 528 890.7 525.5L900 523L900 601L890.7 601C881.3 601 862.7 601 844 601C825.3 601 806.7 601 787.8 601C769 601 750 601 731.2 601C712.3 601 693.7 601 675 601C656.3 601 637.7 601 619 601C600.3 601 581.7 601 562.8 601C544 601 525 601 506.2 601C487.3 601 468.7 601 450 601C431.3 601 412.7 601 394 601C375.3 601 356.7 601 337.8 601C319 601 300 601 281.2 601C262.3 601 243.7 601 225 601C206.3 601 187.7 601 169 601C150.3 601 131.7 601 112.8 601C94 601 75 601 56.2 601C37.3 601 18.7 601 9.3 601L0 601Z" fill="#f48d3e"></path><path d="M0 480L9.3 482.3C18.7 484.7 37.3 489.3 56.2 490.2C75 491 94 488 112.8 490.3C131.7 492.7 150.3 500.3 169 505.3C187.7 510.3 206.3 512.7 225 506.7C243.7 500.7 262.3 486.3 281.2 483.3C300 480.3 319 488.7 337.8 493.8C356.7 499 375.3 501 394 494.8C412.7 488.7 431.3 474.3 450 467.7C468.7 461 487.3 462 506.2 464.2C525 466.3 544 469.7 562.8 483C581.7 496.3 600.3 519.7 619 530C637.7 540.3 656.3 537.7 675 538.7C693.7 539.7 712.3 544.3 731.2 529.5C750 514.7 769 480.3 787.8 474.8C806.7 469.3 825.3 492.7 844 495.3C862.7 498 881.3 480 890.7 471L900 462L900 601L890.7 601C881.3 601 862.7 601 844 601C825.3 601 806.7 601 787.8 601C769 601 750 601 731.2 601C712.3 601 693.7 601 675 601C656.3 601 637.7 601 619 601C600.3 601 581.7 601 562.8 601C544 601 525 601 506.2 601C487.3 601 468.7 601 450 601C431.3 601 412.7 601 394 601C375.3 601 356.7 601 337.8 601C319 601 300 601 281.2 601C262.3 601 243.7 601 225 601C206.3 601 187.7 601 169 601C150.3 601 131.7 601 112.8 601C94 601 75 601 56.2 601C37.3 601 18.7 601 9.3 601L0 601Z" fill="#f28334"></path><path d="M0 561L9.3 560.3C18.7 559.7 37.3 558.3 56.2 544C75 529.7 94 502.3 112.8 501.5C131.7 500.7 150.3 526.3 169 536.5C187.7 546.7 206.3 541.3 225 528C243.7 514.7 262.3 493.3 281.2 486.8C300 480.3 319 488.7 337.8 492C356.7 495.3 375.3 493.7 394 499.8C412.7 506 431.3 520 450 528.7C468.7 537.3 487.3 540.7 506.2 544.8C525 549 544 554 562.8 549.3C581.7 544.7 600.3 530.3 619 521.7C637.7 513 656.3 510 675 515.8C693.7 521.7 712.3 536.3 731.2 533C750 529.7 769 508.3 787.8 507.7C806.7 507 825.3 527 844 534.7C862.7 542.3 881.3 537.7 890.7 535.3L900 533L900 601L890.7 601C881.3 601 862.7 601 844 601C825.3 601 806.7 601 787.8 601C769 601 750 601 731.2 601C712.3 601 693.7 601 675 601C656.3 601 637.7 601 619 601C600.3 601 581.7 601 562.8 601C544 601 525 601 506.2 601C487.3 601 468.7 601 450 601C431.3 601 412.7 601 394 601C375.3 601 356.7 601 337.8 601C319 601 300 601 281.2 601C262.3 601 243.7 601 225 601C206.3 601 187.7 601 169 601C150.3 601 131.7 601 112.8 601C94 601 75 601 56.2 601C37.3 601 18.7 601 9.3 601L0 601Z" fill="#f0792a"></path><path d="M0 524L9.3 519.3C18.7 514.7 37.3 505.3 56.2 505.2C75 505 94 514 112.8 526.2C131.7 538.3 150.3 553.7 169 549.8C187.7 546 206.3 523 225 518.5C243.7 514 262.3 528 281.2 531.5C300 535 319 528 337.8 532.3C356.7 536.7 375.3 552.3 394 552.8C412.7 553.3 431.3 538.7 450 529.3C468.7 520 487.3 516 506.2 516.5C525 517 544 522 562.8 519.7C581.7 517.3 600.3 507.7 619 505.2C637.7 502.7 656.3 507.3 675 518.8C693.7 530.3 712.3 548.7 731.2 549.8C750 551 769 535 787.8 530.5C806.7 526 825.3 533 844 540.3C862.7 547.7 881.3 555.3 890.7 559.2L900 563L900 601L890.7 601C881.3 601 862.7 601 844 601C825.3 601 806.7 601 787.8 601C769 601 750 601 731.2 601C712.3 601 693.7 601 675 601C656.3 601 637.7 601 619 601C600.3 601 581.7 601 562.8 601C544 601 525 601 506.2 601C487.3 601 468.7 601 450 601C431.3 601 412.7 601 394 601C375.3 601 356.7 601 337.8 601C319 601 300 601 281.2 601C262.3 601 243.7 601 225 601C206.3 601 187.7 601 169 601C150.3 601 131.7 601 112.8 601C94 601 75 601 56.2 601C37.3 601 18.7 601 9.3 601L0 601Z" fill="#ee6f21"></path><path d="M0 551L9.3 550C18.7 549 37.3 547 56.2 549.3C75 551.7 94 558.3 112.8 564.2C131.7 570 150.3 575 169 574.8C187.7 574.7 206.3 569.3 225 559.8C243.7 550.3 262.3 536.7 281.2 530.3C300 524 319 525 337.8 526.5C356.7 528 375.3 530 394 532.2C412.7 534.3 431.3 536.7 450 540.3C468.7 544 487.3 549 506.2 550.8C525 552.7 544 551.3 562.8 549.2C581.7 547 600.3 544 619 547.3C637.7 550.7 656.3 560.3 675 559.8C693.7 559.3 712.3 548.7 731.2 543.3C750 538 769 538 787.8 538.7C806.7 539.3 825.3 540.7 844 540C862.7 539.3 881.3 536.7 890.7 535.3L900 534L900 601L890.7 601C881.3 601 862.7 601 844 601C825.3 601 806.7 601 787.8 601C769 601 750 601 731.2 601C712.3 601 693.7 601 675 601C656.3 601 637.7 601 619 601C600.3 601 581.7 601 562.8 601C544 601 525 601 506.2 601C487.3 601 468.7 601 450 601C431.3 601 412.7 601 394 601C375.3 601 356.7 601 337.8 601C319 601 300 601 281.2 601C262.3 601 243.7 601 225 601C206.3 601 187.7 601 169 601C150.3 601 131.7 601 112.8 601C94 601 75 601 56.2 601C37.3 601 18.7 601 9.3 601L0 601Z" fill="#ec6417"></path><path d="M0 579L9.3 580.3C18.7 581.7 37.3 584.3 56.2 583.7C75 583 94 579 112.8 573C131.7 567 150.3 559 169 559C187.7 559 206.3 567 225 572.7C243.7 578.3 262.3 581.7 281.2 579.3C300 577 319 569 337.8 568.7C356.7 568.3 375.3 575.7 394 575C412.7 574.3 431.3 565.7 450 561.7C468.7 557.7 487.3 558.3 506.2 559.3C525 560.3 544 561.7 562.8 563.2C581.7 564.7 600.3 566.3 619 566.7C637.7 567 656.3 566 675 564.2C693.7 562.3 712.3 559.7 731.2 557.7C750 555.7 769 554.3 787.8 557C806.7 559.7 825.3 566.3 844 572.2C862.7 578 881.3 583 890.7 585.5L900 588L900 601L890.7 601C881.3 601 862.7 601 844 601C825.3 601 806.7 601 787.8 601C769 601 750 601 731.2 601C712.3 601 693.7 601 675 601C656.3 601 637.7 601 619 601C600.3 601 581.7 601 562.8 601C544 601 525 601 506.2 601C487.3 601 468.7 601 450 601C431.3 601 412.7 601 394 601C375.3 601 356.7 601 337.8 601C319 601 300 601 281.2 601C262.3 601 243.7 601 225 601C206.3 601 187.7 601 169 601C150.3 601 131.7 601 112.8 601C94 601 75 601 56.2 601C37.3 601 18.7 601 9.3 601L0 601Z" fill="#ea580c"></path></svg>